<svg xmlns="http://www.w3.org/2000/svg" width="100" height="100" viewBox="0 0 100 100"><path fill="#fff" d="M75.834 33.388h-51.67c-1.31 0-2.375 1.058-2.375 2.373v49.89c0 1.314 1.062 2.377 2.373 2.377h51.67c1.314 0 2.375-1.063 2.375-2.377V35.76c0-1.314-1.062-2.372-2.376-2.372zm3.17-16.036H59.402v-3c0-1.313-1.06-2.376-2.373-2.376H42.97c-1.31 0-2.374 1.063-2.374 2.377v3h-19.6c-1.312 0-2.375 1.058-2.375 2.372v6.932c0 1.314 1.065 2.373 2.377 2.373h58.008c1.314 0 2.375-1.06 2.375-2.373v-6.932c0-1.315-1.062-2.373-2.376-2.373z"/></svg>